<?xml version="1.0" encoding="utf-8"?>
<!-- Generator: Adobe Illustrator 24.0.2, SVG Export Plug-In . SVG Version: 6.00 Build 0)  -->
<svg version="1.1" id="Layer_1" xmlns="http://www.w3.org/2000/svg" xmlns:xlink="http://www.w3.org/1999/xlink" x="0px" y="0px"
	 viewBox="0 0 28.4 31.4" style="enable-background:new 0 0 28.4 31.4;" xml:space="preserve">
<style type="text/css">
	.st0{fill:#212121;fill-opacity:0.852;}
</style>
<path class="st0" d="M17.5,5.6c0,1.7-1.4,3.1-3.2,3.1s-3.2-1.4-3.2-3.1s1.4-3.1,3.2-3.1S17.5,3.8,17.5,5.6 M25.4,8.9
	c-0.1,0-0.3,0.1-0.4,0.2l-10.8,1.7L3.4,9c-0.3-0.2-0.7-0.3-1-0.1S1.9,9.4,1.9,9.8c0,0.3,0.2,0.6,0.5,0.8l8.4,2.7l-0.1,6.1l-3,9.1
	c-0.3,0.4-0.2,0.9,0.2,1.2c0.4,0.3,1,0.2,1.3-0.2l4.8-9.8l4.7,9.8c0.3,0.4,0.8,0.6,1.3,0.3c0.4-0.2,0.6-0.8,0.3-1.2l-2.9-9.2
	l-0.1-5.7l8.6-3.1c0.3-0.2,0.5-0.7,0.3-1.1S25.8,8.8,25.4,8.9"/>
</svg>
