<svg version="1.1" xmlns="http://www.w3.org/2000/svg" xmlns:xlink="http://www.w3.org/1999/xlink" role="img" aria-labelledby="lbexpand" x="0px" y="0px"
	 viewBox="0 0 27.8 30.6" style="enable-background:new 0 0 27.8 30.6;" xml:space="preserve">
<title><span data-lang="expand">האיש הנגיש</span></title>
<g>
<path id="expand-image" d="M17.4,4.7c0,1.7-1.4,3.1-3.2,3.1S11,6.4,11,4.7s1.4-3.1,3.2-3.1S17.4,2.9,17.4,4.7 M25.3,8
	c-0.1,0-0.3,0.1-0.4,0.2L14,9.8L3.3,8.1C3,7.9,2.6,7.9,2.3,8C2,8.2,1.8,8.5,1.8,8.9c0,0.3,0.2,0.6,0.5,0.8l8.4,2.7l-0.1,6.1l-3,9.1
	c-0.3,0.4-0.2,0.9,0.2,1.2c0.4,0.3,1,0.2,1.3-0.2l4.8-9.8l4.7,9.8c0.3,0.4,0.8,0.6,1.3,0.3c0.4-0.2,0.6-0.8,0.3-1.2l-2.9-9.2
	l-0.1-5.7l8.6-3.1c0.3-0.2,0.5-0.7,0.3-1.1C26.1,8.2,25.7,8,25.3,8"/>
	</g>
</svg>
