
<svg id="pt-focus" xmlns="http://www.w3.org/2000/svg"  
    role="img" aria-labelledby="lbfocus" viewBox="30 20 70 70">
    <title><span data-lang="focus">מיקוד ריכוז</span></title>
    <g>
	<path class="pt-button-image" d="M51.2,17.4c-0.1-0.1-0.3-0.2-0.5-0.2c-0.4-0.2-0.8,0.2-0.9,0.6l0,0c-0.1,0.4,0.1,0.7,0.5,0.9
		c0.1,0.1,0.2,0.1,0.4,0.2c3.1,1.3,4.5,4.9,3.3,8.2c-0.7,1.8-2.1,3.3-3.9,3.7c-0.4,0.1-0.6,0.5-0.5,0.9l0,0c0.1,0.5,0.5,0.7,0.9,0.6
		c0.9-0.3,1.8-0.8,2.5-1.4c1-0.9,1.8-2,2.2-3.3C56.8,23.6,55,18.9,51.2,17.4z"/>
	<path class="pt-button-image" d="M51.5,16.9c-0.7-0.4-1.6-0.4-2.1,0.3c-0.5,0.8-0.1,1.7,0.7,2c0.6,0.3,1.1,0.5,1.6,0.9c0.5,0.4,0.9,0.9,1.2,1.4
		c1.4,2.2,1.1,5.3-0.6,7.2c-0.5,0.5-1,0.9-1.6,1.2c-0.3,0.1-0.7,0.2-0.9,0.3C49.3,30.6,49,31,49,31.4c-0.1,0.8,0.6,1.5,1.4,1.4
		c0.4,0,0.8-0.3,1.2-0.4c0.4-0.2,0.8-0.4,1.2-0.7c2.5-1.7,3.9-4.9,3.6-7.9c-0.3-3.1-2.2-5.8-5-7c-0.3-0.1-0.7,0.1-0.7,0.4
		c-0.1,0.3,0.1,0.6,0.4,0.7c2.1,0.8,3.6,2.8,4,5c0.5,2.5-0.2,5.1-2,6.9c-0.5,0.5-1.1,1-1.8,1.3c-0.3,0.2-0.7,0.3-1,0.4
		c-0.1,0-0.1,0-0.1,0c-0.1,0-0.1-0.1-0.1-0.2c0-0.2,0.2-0.2,0.4-0.2c0.3-0.1,0.6-0.2,0.9-0.4c0.6-0.3,1.1-0.7,1.6-1.2
		c1.8-1.9,2.4-4.7,1.6-7.2c-0.4-1.3-1.2-2.5-2.3-3.3c-0.6-0.4-1.2-0.7-1.8-1c-0.2-0.1-0.3-0.2-0.2-0.3c0,0,0.1,0,0,0
		c0.1,0,0.3,0.1,0.5,0.1C51.6,18.3,52.2,17.3,51.5,16.9z"/>
	<path class="pt-button-image" d="M62,42.5h-6.2c-0.7,0-1.3-0.6-1.3-1.3l0,0l0,0c0-0.7,0.6-1.3,1.3-1.3c0,0,0,0,0,0h4.8c0.7,0,1.3-0.6,1.3-1.3
		c0,0,0,0,0,0v-4.8c0-0.7,0.6-1.3,1.3-1.3c0,0,0,0,0,0l0,0c0.7,0,1.3,0.6,1.3,1.3v7.5c0,0.7-0.6,1.3-1.3,1.3H62z"/>
	<path class="pt-button-image" d="M62,7h-6.2c-0.7,0-1.3,0.6-1.3,1.3l0,0c0,0.7,0.6,1.3,1.3,1.3c0,0,0,0,0,0h4.8c0.7,0,1.3,0.6,1.3,1.3
		c0,0,0,0,0,0v4.8c0,0.7,0.6,1.3,1.3,1.3c0,0,0,0,0,0l0,0c0.7,0,1.3-0.6,1.3-1.3V8.3c0-0.7-0.6-1.3-1.3-1.3H62z"/>
	<circle class="pt-button-image" cx="46.9" cy="24.7" r="5.1"/>
	<path class="pt-button-image" d="M38.4,27.5c0.4,1.3,1.3,2.4,2.2,3.3c0.7,0.6,1.6,1.1,2.5,1.4c0.4,0.2,0.8-0.1,0.9-0.6l0,0
		c0.1-0.4-0.1-0.8-0.5-0.9c-1.8-0.5-3.2-1.9-3.9-3.7c-1.2-3.3,0.3-6.9,3.3-8.2c0.1-0.1,0.2-0.1,0.4-0.2c0.4-0.2,0.6-0.5,0.5-0.9l0,0
		c-0.1-0.4-0.5-0.7-0.9-0.6c-0.2,0-0.4,0.1-0.5,0.2C38.6,18.9,36.8,23.6,38.4,27.5z"/>
	<path class="pt-button-image" d="M37.8,27.7c0.6,1.6,1.6,3,3,4c0.7,0.5,1.5,0.9,2.2,1.1c0.9,0.2,1.6-0.5,1.6-1.3c0-0.4-0.2-0.8-0.5-1.1
		c-0.3-0.2-0.7-0.3-1-0.4c-0.6-0.3-1.2-0.6-1.6-1.1c-0.9-1-1.5-2.2-1.6-3.6c-0.2-2.6,1.1-5,3.5-6c0.4-0.2,0.7-0.3,0.9-0.7
		c0.2-0.4,0.2-0.9,0-1.3c-0.4-0.8-1.3-0.9-2-0.6c-1.2,0.5-2.3,1.2-3.1,2.3C37.2,21.4,36.7,24.8,37.8,27.7c0.1,0.3,0.4,0.5,0.7,0.4
		c0.3-0.1,0.5-0.4,0.4-0.7c-0.8-2.2-0.7-4.6,0.5-6.6c0.6-1,1.4-1.8,2.4-2.3c0.2-0.1,0.5-0.3,0.7-0.4c0.1,0,0.2-0.1,0.3-0.2
		c0.1,0,0,0,0.1,0c0,0,0.3,0,0.2,0c0.1,0,0.2,0.1,0.1,0.2c-0.1,0.2-0.5,0.2-0.7,0.3c-2.3,1-3.8,3.3-4,5.8c-0.2,2.6,1.1,5.4,3.4,6.6
		c0.3,0.2,0.6,0.3,1,0.4c0.2,0.1,0.5,0.1,0.4,0.3c0,0.1,0,0.1-0.1,0.1c0.1,0-0.1,0,0,0c-0.1,0-0.2-0.1-0.3-0.1
		c-0.4-0.2-0.8-0.3-1.2-0.6c-1.4-0.8-2.5-2.1-3-3.6c-0.1-0.3-0.4-0.5-0.7-0.4C37.9,27,37.7,27.4,37.8,27.7z"/>
	<path class="pt-button-image" d="M31.8,42.5H38c0.7,0,1.3-0.6,1.3-1.3l0,0l0,0c0-0.7-0.6-1.3-1.3-1.3c0,0,0,0,0,0h-4.8c-0.7,0-1.3-0.6-1.3-1.3
		c0,0,0,0,0,0v-4.8c0-0.7-0.6-1.3-1.3-1.3c0,0,0,0,0,0l0,0c-0.7,0-1.3,0.6-1.3,1.3v7.5c0,0.7,0.6,1.3,1.3,1.3H31.8z"/>
	<path class="pt-button-image" d="M31.8,7H38c0.7,0,1.3,0.6,1.3,1.3c0,0,0,0,0,0l0,0c0,0.7-0.6,1.3-1.3,1.3c0,0,0,0,0,0h-4.8
		c-0.7,0-1.3,0.6-1.3,1.3c0,0,0,0,0,0v4.8c0,0.7-0.6,1.3-1.3,1.3c0,0,0,0,0,0l0,0c-0.7,0-1.3-0.6-1.3-1.3c0,0,0,0,0,0V8.3
		c0-0.7,0.6-1.3,1.3-1.3H31.8z"/>
</g>
</svg>
