<?xml version="1.0" encoding="utf-8"?>
<!-- Generator: Adobe Illustrator 24.3.0, SVG Export Plug-In . SVG Version: 6.00 Build 0)  -->
<svg version="1.1" id="font-zoom-out" xmlns="http://www.w3.org/2000/svg" xmlns:xlink="http://www.w3.org/1999/xlink" x="0px"
	 y="0px" viewBox="0 0 151 106" style="enable-background:new 0 0 151 106;" xml:space="preserve">
<path d="M68.2,43.9h-4.1l-0.9,3.3h-2.8l4.2-13.1h3.3L72,47.2h-3L68.2,43.9z M67.6,41.8l-0.4-1.3c-0.2-0.6-0.4-1.5-0.7-2.8l-0.4-1.5
	H66c-0.4,1.7-0.8,3.1-1.1,4.2l-0.4,1.3L67.6,41.8L67.6,41.8z"/>
<path d="M86.4,47.2l-4.3-6.7l-2,6.7h-3.2l2.6-7.9l0.7-1.8L78.1,34h3.3l1.8,3l1.7,2.5l0.6-2.1l0.9-3.4h3.2l-2.8,8.4l3.2,4.8H86.4z"/>
<rect x="70" y="53.7" transform="matrix(0.5441 -0.839 0.839 0.5441 -17.6219 86.7127)" width="2" height="11.7"/>
<rect x="74.3" y="58.5" transform="matrix(0.839 -0.5441 0.5441 0.839 -19.4743 53.1789)" width="11.7" height="2"/>
</svg>
