<svg version="1.1" id="pt-font-zoomin" xmlns="http://www.w3.org/2000/svg" xmlns:xlink="http://www.w3.org/1999/xlink" x="0px" y="0px"
	 role="img" aria-labelledby="lbfzoomin" viewBox="30 20 70 70" style="enable-background:new 0 0 151 106;" xml:space="preserve">
<title><span data-lang="font-zoom-in">הגדלת גופן</span></title>
<g>
	<path class="pt-button-image" d="M65.3,58.6h-5.7l-1.2,4.6h-3.9l5.8-18.3h4.6l5.8,18.3h-4.1L65.3,58.6z M64.5,55.7L64,53.8c-0.2-0.8-0.6-2.1-1-3.9l-0.5-2.1
		h-0.1c-0.6,2.4-1.1,4.4-1.5,5.9l-0.5,1.9H64.5z"/>
	<path class="pt-button-image" d="M90.8,63.2l-6-9.3l-2.8,9.3h-4.4l3.6-11l1-2.5l-3-4.8h4.6l2.6,4.2l2.3,3.5l0.9-2.9l1.3-4.7h4.4l-3.8,11.6l4.4,6.6H90.8z"/>
	<rect class="pt-button-image" x="79.2" y="26.7" transform="matrix(0.5441 -0.839 0.839 0.5441 9.2456 82.0741)" width="2" height="11.7"/>
	<rect class="pt-button-image" x="65.2" y="31.6" transform="matrix(0.839 -0.5441 0.5441 0.839 -6.2937 43.8794)" width="11.7" height="2"/>
</g>

</svg>
