<?xml version="1.0" encoding="utf-8"?>
<!-- Generator: Adobe Illustrator 24.3.0, SVG Export Plug-In . SVG Version: 6.00 Build 0)  -->
<svg version="1.1" id="font-zoom-out" xmlns="http://www.w3.org/2000/svg" xmlns:xlink="http://www.w3.org/1999/xlink" x="0px" y="0px"
	 role="img" aria-labelledby="lbfzoomout" viewBox="0 0 151 106" style="enable-background:new 0 0 151 106;" xml:space="preserve">
<title><span data-lang="font-zoom-out">הקטנת גופן</span></title>
<g>
	<path class="pt-button-image" d="M68.2,38.9h-4.1l-0.9,3.3h-2.8l4.2-13.1h3.3l4.1,13.1H69L68.2,38.9z M67.6,36.8l-0.4-1.3c-0.2-0.6-0.4-1.5-0.7-2.8
		l-0.4-1.5h-0.1c-0.4,1.7-0.8,3.1-1.1,4.2l-0.4,1.3H67.6z"/>
	<path class="pt-button-image" d="M86.4,42.2l-4.3-6.7l-2,6.7h-3.2l2.6-7.9l0.7-1.8l-2.1-3.5h3.3l1.8,3l1.7,2.5l0.6-2.1l0.9-3.4h3.2l-2.8,8.4l3.2,4.8H86.4z"
		/>
	<rect class="pt-button-image" x="70" y="53.7" transform="matrix(0.5441 -0.839 0.839 0.5441 -17.6121 86.7397)" width="2" height="11.7"/>
	<rect class="pt-button-image" x="74.3" y="58.5" transform="matrix(0.839 -0.5441 0.5441 0.839 -19.4883 53.1888)" width="11.7" height="2"/>
</g>
</svg>
