<svg id="Layer_1" data-name="Layer 1" xmlns="http://www.w3.org/2000/svg" viewBox="0 0 3041.47 355.74"><defs><style>.cls-1{fill:#43c0ea;}.cls-2,.cls-4{fill:#fff;}.cls-3{fill:#0f4760;}.cls-4{font-size:97.59px;font-family:Inter-SemiBold, Inter;font-weight:600;}</style></defs><rect class="cls-1" x="0.47" width="3041" height="356"/><path class="cls-2" d="M1024.85,170.43c0,39.41-33.81,74.58-74.58,74.58H927.18V216.09h20.47a45.65,45.65,0,0,0,45.66-45.65H896.54c-1.42,0-2.83,0-4.23.11-.92,0-1.84.11-2.76.18l-2,.2a82.23,82.23,0,0,0-73.25,81.74v68.81H927.18V283.33h23.09a112.89,112.89,0,0,0,112.89-112.89Z"/><path class="cls-3" d="M1063.16,147.34A112.88,112.88,0,0,0,950.27,34.46h-136V147.34h37.52V72h98.46a75.36,75.36,0,0,1,75.36,75.36h37.52Z"/><path class="cls-3" d="M1658.44,252.61a30.48,30.48,0,0,1,12.44,12.82,39.79,39.79,0,0,1,4.18,18.43,40.55,40.55,0,0,1-4.18,18.69,30.12,30.12,0,0,1-12.39,12.81q-8.21,4.62-20,4.61H1611V248h27.53Q1650.18,248,1658.44,252.61Zm-3.61,50.05q5.84-6.95,5.83-18.7,0-11.54-5.83-18.59t-16.31-7h-13.13v51.26h13.13Q1649,309.59,1654.83,302.66Z"/><path class="cls-3" d="M1701.65,248h14.4v72h-14.4Z"/><path class="cls-3" d="M1806.39,285.34v30.71a49.14,49.14,0,0,1-11.38,3.82,66.13,66.13,0,0,1-14.14,1.48q-12.49,0-21.13-5.14a32.88,32.88,0,0,1-12.92-13.66,41,41,0,0,1-4.29-18.69,38.92,38.92,0,0,1,4.5-18.54,33.58,33.58,0,0,1,13.4-13.55q8.89-5.09,21.5-5.09a42.69,42.69,0,0,1,12.55,1.8,32.48,32.48,0,0,1,10.11,5l-3.81,9.85a32,32,0,0,0-8.42-4.34,31.26,31.26,0,0,0-10.43-1.7,25.23,25.23,0,0,0-13.51,3.5,22.31,22.31,0,0,0-8.58,9.58,31.18,31.18,0,0,0-2.91,13.61,33.11,33.11,0,0,0,2.76,13.82,21.84,21.84,0,0,0,8.15,9.59,23.45,23.45,0,0,0,13,3.49,64.08,64.08,0,0,0,11.54-1.16V285.34Z"/><path class="cls-3" d="M1833.93,248h14.4v72h-14.4Z"/><path class="cls-3" d="M1930.62,258.33H1908.7V320h-14.4V258.33h-21.93V248h58.25Z"/><path class="cls-3" d="M1991.62,300.48h-26.69L1958.15,320h-14.51l27.75-73h13.77L2013,320H1998.4Zm-3.6-10.16-9.75-28.18-9.85,28.18Z"/><path class="cls-3" d="M2083.77,309.7V320h-46.5V248h14.41V309.7Z"/><path class="cls-3" d="M2138.42,315.52l3.49-10.06a49.34,49.34,0,0,0,10.38,4.08,42.84,42.84,0,0,0,10.8,1.32,20.49,20.49,0,0,0,10.81-2.64,8.45,8.45,0,0,0,4.34-7.63,7.32,7.32,0,0,0-2.07-5.24,16.62,16.62,0,0,0-5.13-3.6c-2.05-1-4.87-2.07-8.48-3.34a109.24,109.24,0,0,1-11.27-4.71,22.07,22.07,0,0,1-7.37-6,15.31,15.31,0,0,1-3.07-9.8q0-10,7.47-15.62t19.75-5.56a40.53,40.53,0,0,1,21.61,5.72l-3.5,10a35,35,0,0,0-17.68-5.09,17.27,17.27,0,0,0-9.75,2.54,8.18,8.18,0,0,0-3.81,7.21,6.58,6.58,0,0,0,2,4.76,15.92,15.92,0,0,0,4.87,3.34q2.91,1.32,8.21,3.33a109.31,109.31,0,0,1,11.65,4.93,23.32,23.32,0,0,1,7.63,6.25,15.73,15.73,0,0,1,3.17,10.11q0,10.17-7.73,15.94t-21.39,5.77Q2148.27,321.45,2138.42,315.52Z"/><path class="cls-3" d="M2230.13,316.42a32.74,32.74,0,0,1-12.65-13.55,43.68,43.68,0,0,1-.05-37.65,32.37,32.37,0,0,1,12.65-13.51q8.41-5,20.28-5t20.18,5a32.77,32.77,0,0,1,12.71,13.51,40.87,40.87,0,0,1,4.29,18.74,41.5,41.5,0,0,1-4.29,18.91,32.7,32.7,0,0,1-12.66,13.55q-8.36,5-20.23,5T2230.13,316.42Zm32.57-9.05a22.2,22.2,0,0,0,7.84-9.59,33.74,33.74,0,0,0,2.7-13.82,33.11,33.11,0,0,0-2.7-13.66,22.27,22.27,0,0,0-7.84-9.53,23.31,23.31,0,0,0-24.57,0,21.79,21.79,0,0,0-7.78,9.53A33.59,33.59,0,0,0,2227.7,284a34.24,34.24,0,0,0,2.65,13.82,21.74,21.74,0,0,0,7.78,9.59,23.37,23.37,0,0,0,24.57,0Z"/><path class="cls-3" d="M2360.72,309.7V320h-46.49V248h14.4V309.7Z"/><path class="cls-3" d="M2391.23,313.56q-8.16-7.89-8.16-21.44V248h14.4V292q0,9.44,4.4,14.14t12.76,4.71q8.26,0,12.66-4.71t4.39-14.14V248h14.41v44q0,13.65-8.1,21.6t-23.36,7.94Q2399.38,321.45,2391.23,313.56Z"/><path class="cls-3" d="M2527.32,258.33h-21.93V320H2491V258.33h-21.92V248h58.25Z"/><path class="cls-3" d="M2551.47,248h14.4v72h-14.4Z"/><path class="cls-3" d="M2609.29,316.42a32.7,32.7,0,0,1-12.66-13.55,43.68,43.68,0,0,1-.05-37.65,32.34,32.34,0,0,1,12.66-13.51q8.41-5,20.28-5t20.17,5a32.71,32.71,0,0,1,12.71,13.51,40.87,40.87,0,0,1,4.29,18.74,41.5,41.5,0,0,1-4.29,18.91,32.68,32.68,0,0,1-12.65,13.55q-8.37,5-20.23,5T2609.29,316.42Zm32.57-9.05a22.11,22.11,0,0,0,7.83-9.59A33.58,33.58,0,0,0,2652.4,284a33,33,0,0,0-2.71-13.66,22.17,22.17,0,0,0-7.83-9.53,23.31,23.31,0,0,0-24.57,0,21.88,21.88,0,0,0-7.79,9.53,33.76,33.76,0,0,0-2.65,13.66,34.41,34.41,0,0,0,2.65,13.82,21.83,21.83,0,0,0,7.79,9.59,23.37,23.37,0,0,0,24.57,0Z"/><path class="cls-3" d="M2756.4,248v72l-12.82.11-36.85-50.84,1.06,24.25V320h-14.41V248h12.82l36.86,50.73L2742,273.05V248Z"/><path class="cls-3" d="M2782.45,315.52l3.5-10.06a49.34,49.34,0,0,0,10.38,4.08,42.84,42.84,0,0,0,10.8,1.32,20.43,20.43,0,0,0,10.8-2.64,8.44,8.44,0,0,0,4.35-7.63,7.32,7.32,0,0,0-2.07-5.24,16.67,16.67,0,0,0-5.14-3.6q-3.08-1.44-8.47-3.34a108.6,108.6,0,0,1-11.28-4.71,22,22,0,0,1-7.36-6,15.25,15.25,0,0,1-3.07-9.8q0-10,7.47-15.62t19.75-5.56a40.47,40.47,0,0,1,21.6,5.72l-3.49,10a35,35,0,0,0-17.69-5.09,17.26,17.26,0,0,0-9.74,2.54A8.18,8.18,0,0,0,2799,267a6.58,6.58,0,0,0,2,4.76,15.68,15.68,0,0,0,4.87,3.34c1.94.88,4.67,2,8.21,3.33a109.31,109.31,0,0,1,11.65,4.93,23.28,23.28,0,0,1,7.62,6.25,15.68,15.68,0,0,1,3.18,10.11q0,10.17-7.73,15.94t-21.4,5.77Q2792.31,321.45,2782.45,315.52Z"/><path class="cls-3" d="M1385.53,208.18c-21,0-29.13,5.72-36,13.21v-9.63h-35.22V320.5h35.22V261.07c0-17.57,8.61-24.94,21-24.94,14.83,0,19.8,5.21,19.8,20V320.5h35.21V242.08C1425.59,223.58,1410.09,208.18,1385.53,208.18Z"/><rect class="cls-3" x="1252.76" y="211.76" width="35.21" height="108.73"/><rect class="cls-3" x="1252.76" y="170.52" width="35.21" height="26.12"/><path class="cls-3" d="M1181.12,170.52h-77.65v150h37.31V269.07h40.34c33.05,0,50.5-22.06,50.5-49.27S1213.35,170.52,1181.12,170.52Zm-4.94,69.5h-35.4V199.57h35.4c11.69,0,20.23,6.11,20.23,20.23S1187.87,240,1176.18,240Z"/><path class="cls-3" d="M1553.39,306.38V248.67c0-22.41-11.13-40.49-49-40.49-29.28,0-55.13,9.82-55.13,39H1480c1.75-7.3,7.75-14,19.94-14,13.86,0,18.15,5.15,18.15,11.94s-6.91,12.71-37.47,15.64c-26,2.49-35.4,14.39-35.4,32.68,0,14,9.4,30.64,35.91,30.64,32.77,0,37-13.21,37-13.21a41.63,41.63,0,0,0,3.15,9.63h35.22A37,37,0,0,1,1553.39,306.38ZM1518.1,281.9c0,14.83-11.33,20.89-21.76,20.89-11,0-17-4.58-17-13.67,0-16.65,23.27-10.48,38.81-18.91Z"/><text class="cls-4" transform="translate(205.47 317.81)">Powered by</text></svg>