<?xml version="1.0" encoding="utf-8"?>
<!-- Generator: Adobe Illustrator 24.2.3, SVG Export Plug-In . SVG Version: 6.00 Build 0)  -->
<svg version="1.1" id="Layer_1" xmlns="http://www.w3.org/2000/svg" xmlns:xlink="http://www.w3.org/1999/xlink" x="0px" y="0px"
	 viewBox="0 0 3041.5 355.7" style="enable-background:new 0 0 3041.5 355.7;" xml:space="preserve">
<style type="text/css">
	.st0{fill:#43C0EA;}
	.st1{fill:#0F4760;}
	.st2{fill:#FFFFFF;}
	.st3{enable-background:new    ;}
</style>
<rect x="0.5" class="st0" width="3041" height="356"/>
<path class="st1" d="M1024.8,170.4c0,39.4-33.8,74.6-74.6,74.6h-23.1v-28.9h20.5c25.2,0,45.7-20.4,45.7-45.6c0,0,0,0,0,0h-96.8
	c-1.4,0-2.8,0-4.2,0.1c-0.9,0-1.8,0.1-2.8,0.2l-2,0.2c-41.7,4.6-73.3,39.8-73.3,81.7v68.8h112.9v-38.1h23.1
	c62.3,0,112.9-50.5,112.9-112.9v0L1024.8,170.4z"/>
<path class="st2" d="M1063.2,147.3c0-62.3-50.5-112.9-112.9-112.9c0,0,0,0,0,0h-136v112.9h37.5V72h98.5c41.6,0,75.4,33.7,75.4,75.4
	c0,0,0,0,0,0L1063.2,147.3L1063.2,147.3z"/>
<g>
	<path class="st2" d="M1658.4,252.6c5.3,2.9,9.7,7.4,12.4,12.8c2.9,5.7,4.3,12,4.2,18.4c0.1,6.5-1.3,12.9-4.2,18.7
		c-2.7,5.4-7.1,9.9-12.4,12.8c-5.5,3.1-12.1,4.6-20,4.6H1611v-72h27.5C1646.3,248,1652.9,249.5,1658.4,252.6z M1654.8,302.7
		c3.9-4.6,5.8-10.9,5.8-18.7c0-7.7-1.9-13.9-5.8-18.6c-3.9-4.7-9.3-7-16.3-7h-13.1v51.3h13.1
		C1645.5,309.6,1650.9,307.3,1654.8,302.7z"/>
	<path class="st2" d="M1701.7,248h14.4v72h-14.4V248z"/>
	<path class="st2" d="M1806.4,285.3V316c-3.6,1.7-7.4,3-11.4,3.8c-4.6,1-9.4,1.5-14.1,1.5c-8.3,0-15.4-1.7-21.1-5.1
		c-5.5-3.2-10-7.9-12.9-13.7c-2.9-5.8-4.4-12.2-4.3-18.7c-0.1-6.5,1.5-12.8,4.5-18.5c3.1-5.7,7.7-10.4,13.4-13.6
		c5.9-3.4,13.1-5.1,21.5-5.1c4.2,0,8.5,0.6,12.6,1.8c3.6,1.1,7.1,2.8,10.1,5l-3.8,9.9c-2.6-1.9-5.4-3.3-8.4-4.3
		c-3.4-1.2-6.9-1.7-10.4-1.7c-4.7-0.1-9.4,1.1-13.5,3.5c-3.7,2.3-6.7,5.6-8.6,9.6c-2,4.3-3,8.9-2.9,13.6c-0.1,4.8,0.9,9.5,2.8,13.8
		c1.7,3.9,4.6,7.3,8.2,9.6c3.9,2.4,8.4,3.6,13,3.5c3.9,0,7.7-0.4,11.5-1.2v-24.4H1806.4z"/>
	<path class="st2" d="M1833.9,248h14.4v72h-14.4V248z"/>
	<path class="st2" d="M1930.6,258.3h-21.9V320h-14.4v-61.7h-21.9V248h58.3L1930.6,258.3z"/>
	<path class="st2" d="M1991.6,300.5h-26.7l-6.8,19.5h-14.5l27.8-73h13.8l27.8,73h-14.6L1991.6,300.5z M1988,290.3l-9.8-28.2
		l-9.8,28.2H1988z"/>
	<path class="st2" d="M2083.8,309.7V320h-46.5v-72h14.4v61.7H2083.8z"/>
	<path class="st2" d="M2138.4,315.5l3.5-10.1c3.3,1.7,6.8,3.1,10.4,4.1c3.5,0.9,7.2,1.3,10.8,1.3c3.8,0.1,7.5-0.8,10.8-2.6
		c2.8-1.5,4.4-4.5,4.3-7.6c0-2-0.7-3.8-2.1-5.2c-1.5-1.5-3.2-2.7-5.1-3.6c-2.1-1-4.9-2.1-8.5-3.3c-3.8-1.4-7.6-2.9-11.3-4.7
		c-2.9-1.4-5.4-3.5-7.4-6c-2.1-2.8-3.2-6.3-3.1-9.8c0-6.7,2.5-11.9,7.5-15.6c5-3.7,11.6-5.6,19.8-5.6c7.6-0.2,15.1,1.8,21.6,5.7
		l-3.5,10c-5.3-3.2-11.4-5-17.7-5.1c-3.4-0.1-6.8,0.7-9.8,2.5c-2.5,1.6-3.9,4.3-3.8,7.2c0,1.8,0.7,3.5,2,4.8
		c1.4,1.4,3.1,2.5,4.9,3.3c1.9,0.9,4.7,2,8.2,3.3c4,1.4,7.9,3.1,11.6,4.9c3,1.5,5.6,3.6,7.6,6.3c2.2,2.9,3.3,6.5,3.2,10.1
		c0,6.8-2.6,12.1-7.7,15.9c-5.2,3.8-12.3,5.8-21.4,5.8C2153.3,321.5,2145,319.5,2138.4,315.5z"/>
	<path class="st2" d="M2230.1,316.4c-5.4-3.2-9.8-7.9-12.6-13.5c-5.7-11.9-5.7-25.7-0.1-37.6c2.8-5.6,7.2-10.3,12.6-13.5
		c5.6-3.3,12.4-5,20.3-5s14.6,1.7,20.2,5c5.4,3.2,9.9,7.9,12.7,13.5c2.9,5.8,4.4,12.2,4.3,18.7c0.1,6.6-1.4,13-4.3,18.9
		c-2.8,5.6-7.2,10.3-12.7,13.5c-5.6,3.3-12.3,5-20.2,5S2235.7,319.8,2230.1,316.4z M2262.7,307.4c3.5-2.4,6.2-5.7,7.8-9.6
		c1.9-4.4,2.8-9.1,2.7-13.8c0.1-4.7-0.8-9.3-2.7-13.7c-1.7-3.9-4.4-7.2-7.8-9.5c-7.5-4.7-17-4.7-24.6,0c-3.5,2.4-6.2,5.7-7.8,9.5
		c-1.8,4.3-2.7,9-2.6,13.7c-0.1,4.7,0.8,9.4,2.6,13.8c1.6,3.9,4.3,7.2,7.8,9.6C2245.7,312.1,2255.2,312.1,2262.7,307.4L2262.7,307.4
		z"/>
	<path class="st2" d="M2360.7,309.7V320h-46.5v-72h14.4v61.7H2360.7z"/>
	<path class="st2" d="M2391.2,313.6c-5.4-5.3-8.2-12.4-8.2-21.4V248h14.4v44c0,6.3,1.5,11,4.4,14.1c2.9,3.1,7.2,4.7,12.8,4.7
		c5.5,0,9.7-1.6,12.7-4.7c2.9-3.1,4.4-7.9,4.4-14.1v-44h14.4v44c0,9.1-2.7,16.3-8.1,21.6c-5.4,5.3-13.2,7.9-23.4,7.9
		C2404.5,321.5,2396.7,318.8,2391.2,313.6z"/>
	<path class="st2" d="M2527.3,258.3h-21.9V320H2491v-61.7h-21.9V248h58.3L2527.3,258.3z"/>
	<path class="st2" d="M2551.5,248h14.4v72h-14.4V248z"/>
	<path class="st2" d="M2609.3,316.4c-5.4-3.2-9.8-7.9-12.7-13.5c-5.7-11.9-5.7-25.7-0.1-37.6c2.8-5.6,7.2-10.3,12.7-13.5
		c5.6-3.3,12.4-5,20.3-5s14.6,1.7,20.2,5c5.5,3.2,9.9,7.9,12.7,13.5c2.9,5.8,4.4,12.2,4.3,18.7c0.1,6.6-1.4,13-4.3,18.9
		c-2.8,5.6-7.2,10.3-12.6,13.5c-5.6,3.3-12.3,5-20.2,5S2614.9,319.8,2609.3,316.4z M2641.9,307.4c3.5-2.4,6.2-5.7,7.8-9.6
		c1.9-4.4,2.8-9,2.7-13.8c0.1-4.7-0.8-9.4-2.7-13.7c-1.7-3.9-4.4-7.2-7.8-9.5c-7.5-4.7-17-4.7-24.6,0c-3.5,2.4-6.2,5.7-7.8,9.5
		c-1.8,4.3-2.7,9-2.6,13.7c-0.1,4.7,0.8,9.4,2.6,13.8c1.6,3.9,4.3,7.2,7.8,9.6C2624.8,312.1,2634.3,312.1,2641.9,307.4L2641.9,307.4
		z"/>
	<path class="st2" d="M2756.4,248v72l-12.8,0.1l-36.9-50.8l1.1,24.3V320h-14.4v-72h12.8l36.9,50.7L2742,273v-25H2756.4z"/>
	<path class="st2" d="M2782.4,315.5l3.5-10.1c3.3,1.7,6.8,3.1,10.4,4.1c3.5,0.9,7.2,1.3,10.8,1.3c3.8,0.1,7.5-0.8,10.8-2.6
		c2.8-1.5,4.4-4.5,4.4-7.6c0-2-0.7-3.8-2.1-5.2c-1.5-1.5-3.2-2.7-5.1-3.6c-2.1-1-4.9-2.1-8.5-3.3c-3.8-1.4-7.6-2.9-11.3-4.7
		c-2.9-1.4-5.4-3.5-7.4-6c-2.1-2.8-3.2-6.3-3.1-9.8c0-6.7,2.5-11.9,7.5-15.6c5-3.7,11.6-5.6,19.8-5.6c7.6-0.2,15.1,1.8,21.6,5.7
		l-3.5,10c-5.3-3.2-11.4-5-17.7-5.1c-3.4-0.1-6.8,0.7-9.7,2.5c-2.4,1.5-3.9,4.2-3.8,7.1c0,1.8,0.7,3.5,2,4.8c1.4,1.4,3,2.5,4.9,3.3
		c1.9,0.9,4.7,2,8.2,3.3c4,1.4,7.9,3.1,11.6,4.9c3,1.5,5.6,3.6,7.6,6.3c2.2,2.9,3.3,6.5,3.2,10.1c0,6.8-2.6,12.1-7.7,15.9
		s-12.3,5.8-21.4,5.8C2797.3,321.4,2789,319.5,2782.4,315.5z"/>
	<path class="st2" d="M1385.5,208.2c-21,0-29.1,5.7-36,13.2v-9.6h-35.2v108.7h35.2v-59.4c0-17.6,8.6-24.9,21-24.9
		c14.8,0,19.8,5.2,19.8,20v64.4h35.2v-78.4C1425.6,223.6,1410.1,208.2,1385.5,208.2z"/>
	<rect x="1252.8" y="211.8" class="st2" width="35.2" height="108.7"/>
	<rect x="1252.8" y="170.5" class="st2" width="35.2" height="26.1"/>
	<path class="st2" d="M1181.1,170.5h-77.7v150h37.3v-51.5h40.3c33.1,0,50.5-22.1,50.5-49.3S1213.3,170.5,1181.1,170.5z M1176.2,240
		h-35.4v-40.4h35.4c11.7,0,20.2,6.1,20.2,20.2S1187.9,240,1176.2,240L1176.2,240z"/>
	<path class="st2" d="M1553.4,306.4v-57.7c0-22.4-11.1-40.5-49-40.5c-29.3,0-55.1,9.8-55.1,39h30.7c1.8-7.3,7.8-14,19.9-14
		c13.9,0,18.2,5.1,18.2,11.9s-6.9,12.7-37.5,15.6c-26,2.5-35.4,14.4-35.4,32.7c0,14,9.4,30.6,35.9,30.6c32.8,0,37-13.2,37-13.2
		c0.7,3.3,1.7,6.6,3.2,9.6h35.2C1554.5,316,1553.5,311.2,1553.4,306.4z M1518.1,281.9c0,14.8-11.3,20.9-21.8,20.9
		c-11,0-17-4.6-17-13.7c0-16.6,23.3-10.5,38.8-18.9L1518.1,281.9z"/>
</g>
<g class="st3">
	<path class="st1" d="M212.6,317.8V248h22.6c8.6,0,14.2,0.3,16.8,1c4,1,7.4,3.3,10.1,6.8c2.7,3.5,4,8,4,13.6c0,4.3-0.8,7.9-2.3,10.8
		c-1.6,2.9-3.5,5.2-5.9,6.9c-2.4,1.7-4.8,2.8-7.3,3.3c-3.4,0.7-8.2,1-14.6,1h-9.2v26.4H212.6z M226.7,259.8v19.8h7.7
		c5.6,0,9.3-0.4,11.2-1.1c1.9-0.7,3.3-1.9,4.4-3.4s1.6-3.4,1.6-5.4c0-2.5-0.7-4.6-2.2-6.3c-1.5-1.7-3.4-2.7-5.7-3.1
		c-1.7-0.3-5.1-0.5-10.1-0.5H226.7z"/>
	<path class="st1" d="M274.5,291.8c0-4.4,1.1-8.8,3.3-12.9c2.2-4.2,5.3-7.3,9.3-9.5c4-2.2,8.5-3.3,13.5-3.3c7.7,0,13.9,2.5,18.8,7.5
		c4.9,5,7.3,11.3,7.3,18.8c0,7.7-2.5,14-7.4,19c-4.9,5-11.2,7.6-18.7,7.6c-4.6,0-9.1-1-13.3-3.1s-7.4-5.2-9.6-9.2
		C275.6,302.5,274.5,297.6,274.5,291.8z M288.2,292.5c0,5,1.2,8.9,3.6,11.5c2.4,2.7,5.3,4,8.8,4c3.5,0,6.4-1.3,8.8-4
		c2.4-2.7,3.5-6.5,3.5-11.6c0-5-1.2-8.8-3.5-11.4c-2.4-2.7-5.3-4-8.8-4c-3.5,0-6.4,1.3-8.8,4C289.4,283.6,288.2,287.5,288.2,292.5z"
		/>
	<path class="st1" d="M346.6,317.8l-16-50.6h13l9.5,33.2l8.7-33.2h12.9l8.4,33.2l9.7-33.2H406l-16.2,50.6h-12.9l-8.7-32.5l-8.6,32.5
		H346.6z"/>
	<path class="st1" d="M442.4,301.7l13.3,2.2c-1.7,4.9-4.4,8.6-8.1,11.2c-3.7,2.6-8.3,3.8-13.9,3.8c-8.8,0-15.3-2.9-19.5-8.6
		c-3.3-4.6-5-10.4-5-17.4c0-8.4,2.2-15,6.6-19.7c4.4-4.7,9.9-7.1,16.6-7.1c7.5,0,13.5,2.5,17.8,7.5c4.4,5,6.4,12.6,6.2,22.8h-33.5
		c0.1,4,1.2,7.1,3.2,9.3c2.1,2.2,4.6,3.3,7.7,3.3c2.1,0,3.9-0.6,5.3-1.7C440.6,306.1,441.7,304.2,442.4,301.7z M443.2,288.2
		c-0.1-3.9-1.1-6.8-3-8.8c-1.9-2-4.2-3-7-3c-2.9,0-5.3,1.1-7.2,3.2c-1.9,2.1-2.8,5-2.8,8.7H443.2z"/>
	<path class="st1" d="M480.2,317.8h-13.4v-50.6h12.4v7.2c2.1-3.4,4-5.6,5.7-6.7s3.6-1.6,5.8-1.6c3,0,6,0.8,8.8,2.5l-4.1,11.7
		c-2.3-1.5-4.4-2.2-6.3-2.2c-1.9,0-3.5,0.5-4.8,1.5s-2.3,2.9-3.1,5.6c-0.7,2.7-1.1,8.4-1.1,17V317.8z"/>
	<path class="st1" d="M534.6,301.7l13.3,2.2c-1.7,4.9-4.4,8.6-8.1,11.2c-3.7,2.6-8.3,3.8-13.9,3.8c-8.8,0-15.3-2.9-19.5-8.6
		c-3.3-4.6-5-10.4-5-17.4c0-8.4,2.2-15,6.6-19.7c4.4-4.7,9.9-7.1,16.6-7.1c7.5,0,13.5,2.5,17.8,7.5c4.4,5,6.4,12.6,6.2,22.8h-33.5
		c0.1,4,1.2,7.1,3.2,9.3c2.1,2.2,4.6,3.3,7.7,3.3c2.1,0,3.9-0.6,5.3-1.7C532.8,306.1,533.9,304.2,534.6,301.7z M535.4,288.2
		c-0.1-3.9-1.1-6.8-3-8.8c-1.9-2-4.2-3-7-3c-2.9,0-5.3,1.1-7.2,3.2c-1.9,2.1-2.8,5-2.8,8.7H535.4z"/>
	<path class="st1" d="M606,317.8h-12.4v-7.4c-2.1,2.9-4.5,5-7.3,6.5s-5.6,2.1-8.5,2.1c-5.8,0-10.8-2.3-14.9-7
		c-4.1-4.7-6.2-11.2-6.2-19.6c0-8.6,2-15.1,6.1-19.6c4-4.5,9.1-6.7,15.3-6.7c5.7,0,10.5,2.4,14.7,7.1V248H606V317.8z M570.3,291.4
		c0,5.4,0.7,9.3,2.2,11.7c2.2,3.5,5.2,5.2,9.1,5.2c3.1,0,5.7-1.3,7.9-3.9c2.2-2.6,3.2-6.5,3.2-11.7c0-5.8-1-10-3.1-12.6
		c-2.1-2.6-4.8-3.8-8.1-3.8c-3.2,0-5.8,1.3-8,3.8C571.4,282.6,570.3,286.4,570.3,291.4z"/>
	<path class="st1" d="M645.8,317.8V248h13.4v25.2c4.1-4.7,9-7.1,14.7-7.1c6.2,0,11.3,2.2,15.3,6.7c4,4.5,6.1,10.9,6.1,19.2
		c0,8.6-2.1,15.3-6.2,20c-4.1,4.7-9.1,7-15,7c-2.9,0-5.7-0.7-8.6-2.2s-5.2-3.6-7.3-6.4v7.4H645.8z M659.1,291.4
		c0,5.2,0.8,9.1,2.5,11.6c2.3,3.6,5.4,5.3,9.2,5.3c3,0,5.5-1.3,7.6-3.8c2.1-2.5,3.1-6.5,3.1-11.9c0-5.8-1-10-3.1-12.5
		c-2.1-2.6-4.8-3.8-8.1-3.8c-3.2,0-5.9,1.2-8,3.7C660.1,282.5,659.1,286.3,659.1,291.4z"/>
	<path class="st1" d="M699.6,267.2h14.2l12.1,35.9l11.8-35.9h13.9l-17.9,48.7l-3.2,8.8c-1.2,3-2.3,5.2-3.4,6.8
		c-1.1,1.6-2.3,2.8-3.7,3.8s-3.1,1.7-5.1,2.3c-2,0.5-4.3,0.8-6.8,0.8c-2.6,0-5.1-0.3-7.6-0.8l-1.2-10.5c2.1,0.4,4,0.6,5.7,0.6
		c3.1,0,5.4-0.9,6.9-2.7c1.5-1.8,2.6-4.2,3.4-7L699.6,267.2z"/>
</g>
</svg>
