<?xml version="1.0" encoding="utf-8"?>
<!-- Generator: Adobe Illustrator 25.0.0, SVG Export Plug-In . SVG Version: 6.00 Build 0)  -->
<svg version="1.1" id="pt-headings" xmlns="http://www.w3.org/2000/svg" xmlns:xlink="http://www.w3.org/1999/xlink" x="0px" y="0px"
	 viewBox="0 0 70 70" style="enable-background:new 0 0 70 70;" xml:space="preserve">
<style type="text/css">
	.st0{display:none;}
	.st1{display:inline;fill:#C91517;}
	.st2{font-family:'BrushScriptMT';}
	.st3{font-size:12px;}
	.st4{font-family:'ArialMT';}
	.st5{font-size:20px;}
	.st6{display:inline;}
	.st7{font-family:'David';}
	.st8{font-size:38.1285px;}
</style>
<g class="st0">
	<text transform="matrix(1 0 0 1 10.2452 42.9887)" class="st1 st2 st3"> </text>
	<text transform="matrix(1 0 0 1 34.1436 46.1038)" class="st1 st4 st5">A</text>
</g>
<g class="st0">
	<path class="st6" d="M13.1,36.9L13.1,36.9c-0.1-0.2-0.3-0.2-0.5-0.1L11,37.7c-0.2,0.1-0.2,0.3-0.1,0.5l0,0c0.1,0.2,0.3,0.2,0.5,0.1
		l1.6-0.9C13.1,37.3,13.2,37.1,13.1,36.9z"/>
	<path class="st6" d="M12.2,37L12.2,37c0,0.2-0.2,0.3-0.3,0.3H8.8c-0.2,0-0.3-0.2-0.3-0.3l0,0c0-0.2,0.2-0.3,0.3-0.3h3.1
		C12.1,36.7,12.2,36.9,12.2,37z"/>
	<path class="st6" d="M13.1,37.2L13.1,37.2c-0.1,0.2-0.3,0.2-0.5,0.1L11,36.4c-0.2-0.1-0.2-0.3-0.1-0.5l0,0c0.1-0.2,0.3-0.2,0.5-0.1
		l1.6,0.9C13.1,36.8,13.2,37,13.1,37.2z"/>
</g>
<rect x="50" y="6.5" transform="matrix(0.9397 0.342 -0.342 0.9397 7.7027 -16.5375)" class="st0" width="1.5" height="14.2"/>
<g class="st0">
	<g class="st6">
		<rect x="42.5" y="30.9" width="0" height="0.4"/>
		<path d="M52.1,5.8l-9.6,25.5h3.8l2.7-7.7h10.7l2.8,7.7h3.8v-0.4L56.1,5.8H52.1z M50.1,20.8l4.2-12.3l4.5,12.3H50.1z"/>
	</g>
</g>
<image style="display:none;overflow:visible;" width="1500" height="1500" xlink:href="../../../../../Downloads/letter_a_PNG20.png"  transform="matrix(1.447222e-02 0 0 1.447222e-02 -1.75 36.0393)">
</image>
<text transform="matrix(1 0 0 1 36.7402 32.4665)" class="st7 st8">H</text>
</svg>
