<?xml version="1.0" encoding="utf-8"?>
<!-- Generator: Adobe Illustrator 24.3.0, SVG Export Plug-In . SVG Version: 6.00 Build 0)  -->
<svg version="1.1" id="Capa_1" xmlns="http://www.w3.org/2000/svg" xmlns:xlink="http://www.w3.org/1999/xlink" x="0px" y="0px"
	 role="img" aria-labelledby="lblink" viewBox="0 0 151 106" style="enable-background:new 0 0 151 106;" xml:space="preserve">
<title><span data-lang="links-highlight">הדגשת לינקים</span></title>
<g>
	<path d="M87.6,42.2l-5.4,5.4c-3,3-7.8,3-10.8,0c-0.5-0.5-0.8-1-1.2-1.5l2.5-2.5c0.1-0.1,0.3-0.2,0.4-0.3c0.2,0.6,0.5,1.2,0.9,1.6
		c1.5,1.5,3.9,1.5,5.4,0l5.4-5.4c1.5-1.5,1.5-3.9,0-5.4c-1.5-1.5-3.9-1.5-5.4,0L77.6,36c-1.6-0.6-3.2-0.8-4.9-0.5l4.1-4.1
		c3-3,7.8-3,10.8,0C90.6,34.4,90.6,39.2,87.6,42.2z M73.4,51l-1.9,1.9c-1.5,1.5-3.9,1.5-5.4,0c-1.5-1.5-1.5-3.9,0-5.4l5.4-5.4
		c1.5-1.5,3.9-1.5,5.4,0c0.5,0.5,0.8,1,0.9,1.6c0.1-0.1,0.3-0.1,0.4-0.3l2.5-2.5c-0.3-0.5-0.7-1.1-1.2-1.5c-3-3-7.8-3-10.8,0
		l-5.4,5.4c-3,3-3,7.8,0,10.8c3,3,7.8,3,10.8,0l4.1-4.1C76.6,51.8,74.9,51.6,73.4,51z"/>
</g>
</svg>
