<?xml version="1.0" encoding="utf-8"?>
<!-- Generator: Adobe Illustrator 24.3.0, SVG Export Plug-In . SVG Version: 6.00 Build 0)  -->
<svg version="1.1" id="pt-pause" xmlns="http://www.w3.org/2000/svg" xmlns:xlink="http://www.w3.org/1999/xlink" x="0px" y="0px"
	 role="img" aria-labelledby="lbpause" viewBox="30 20 70 70" style="enable-background:new 0 0 151 106;" xml:space="preserve">
<title><span data-lang="animation-stop">עצירת אנימציות</span></title>
<g transform="translate(0.000000,200.000000) scale(0.100000,-0.100000)">
	<path class="pt-button-image" d="M697.8,1684.4c-53.9-11.3-99.2-46.3-123.3-95.3c-13.9-28-16.7-41.6-16.7-78.4c0-36.8,2.8-50.4,16.7-78.6
		c24.3-49.1,70.8-84.7,124.7-95.1c16.7-3.2,50.9-3.2,67.6,0c70.4,13.6,126.3,69.4,139.8,139.8c3.2,16.7,3.2,50.9,0,67.6
		c-12.5,65.2-63.2,119.9-127,137.2C761.8,1686.5,715.6,1688.1,697.8,1684.4z M767.6,1653.4c26.8-6.9,51.6-21.3,70.5-40.9
		c27.8-28.7,41.2-62,41.2-101.8c0-58.1-31.7-107.8-85.1-133.2c-37.9-17.8-84.4-17.8-122.2,0c-17.4,8.3-31.2,18.1-43.9,31.4
		c-27.8,28.7-41.2,62-41.2,101.8c0,26.1,3.9,42.1,16,66.9c8.1,16.4,11.1,20.4,26.9,36.3c15.9,15.9,19.9,18.8,36.3,26.9
		c25.2,12.3,39.6,15.9,66.2,15.9C748.2,1656.9,757.2,1656,767.6,1653.4z"/>
	<path class="pt-button-image" d="M638,1511.4V1447l6.9,4.1c28.5,17.4,91.4,59.2,91.1,60.6c-0.4,1.4-83,56-94.8,62.7C638.1,1575.9,638,1572.4,638,1511.4z"/>
	<path class="pt-button-image" d="M752.4,1511.6v-64.3h15h15v64.3v64.3h-15h-15V1511.6z"/>
	<path class="pt-button-image" d="M798.2,1511.6v-64.3h15h15v64.3v64.3h-15h-15V1511.6z"/>
</g>
</svg>
