<?xml version="1.0" encoding="utf-8"?>
<!-- Generator: Adobe Illustrator 25.0.0, SVG Export Plug-In . SVG Version: 6.00 Build 0)  -->
<svg version="1.1" id="pt-images-remove" xmlns="http://www.w3.org/2000/svg" xmlns:xlink="http://www.w3.org/1999/xlink" x="0px"
	 y="0px" viewBox="0 0 70 70" style="enable-background:new 0 0 70 70;" xml:space="preserve">
<style type="text/css">
	.remimg{fill:none;}
</style>
<title><span data-lang="images-remove">הסרת תמונות</span></title>

<g>
	<rect class="pt-button-image remimg" x="25" y="3" class="st0" width="43.4" height="43.4"/>
	<path class="pt-button-image" d="M63.3,41.3l-1.4-1.4l-4.4-4.4l-8.3-8.3L31.5,9.5l0,0L30,8c-0.7-0.7-1.9-0.6-2.5,0.1c-0.6,0.7-0.6,1.8,0,2.4l2.9,2.9v23.8
		c0,2,1.6,3.6,3.6,3.6c0,0,0,0,0,0h23.8l2.9,2.9c0.7,0.7,1.8,0.7,2.5,0c0,0,0,0,0,0C64,43.1,64,42,63.3,41.3z M35.8,35.5
		c-0.7,0-1.2-0.9-0.7-1.4l4.5-5.8c0.4-0.4,1-0.5,1.4,0l3.7,4.6l2.1-2.7l5.5,5.5H35.8V35.5z M63,35.8L35.5,8.3h23.8
		c2,0,3.6,1.6,3.6,3.6c0,0,0,0,0,0V35.8z"/>
</g>
</svg>
