<?xml version="1.0" encoding="utf-8"?>
<!-- Generator: Adobe Illustrator 25.0.0, SVG Export Plug-In . SVG Version: 6.00 Build 0)  -->
<svg version="1.1" id="pt-page-zoomin" xmlns="http://www.w3.org/2000/svg" xmlns:xlink="http://www.w3.org/1999/xlink" x="0px"
	 y="0px" viewBox="0 0 70 70" style="enable-background:new 0 0 70 70;" xml:space="preserve">
<style type="text/css">
	.st0{fill:none;stroke:#000000;stroke-width:4;stroke-miterlimit:10;}
</style>
<g>
	<g>
		<g>
			<g>
				<path d="M48.9,30.5c0.7,0.7,1.4,1.4,2.1,2.1c0.1,0.1,0.2,0.2,0.3,0.3c0.3,0.3,0.7,0.4,1.1,0.4c0.4,0,0.8-0.2,1.1-0.4
					c0.3-0.3,0.5-0.7,0.4-1.1c0-0.4-0.2-0.8-0.4-1.1c-0.7-0.7-1.4-1.4-2.1-2.1c-0.1-0.1-0.2-0.2-0.3-0.3c-0.3-0.3-0.7-0.4-1.1-0.4
					c-0.4,0-0.8,0.2-1.1,0.4c-0.3,0.3-0.5,0.7-0.4,1.1C48.5,29.9,48.6,30.3,48.9,30.5L48.9,30.5z"/>
			</g>
		</g>
		<g>
			<g>
				<path d="M52.4,36.2c2.7,2.7,5.3,5.3,8,8c0.4,0.4,0.8,0.8,1.1,1.1c1.1,1.1,3.1,1.2,4.2,0c1.1-1.2,1.2-3.1,0-4.2
					c-2.7-2.7-5.3-5.3-8-8c-0.4-0.4-0.8-0.8-1.1-1.1c-1.1-1.1-3.1-1.2-4.2,0C51.3,33.2,51.2,35,52.4,36.2L52.4,36.2z"/>
			</g>
		</g>
	</g>
	<g>
		<g>
			<path d="M38.6,14.7c0,2.6,0,5.3,0,7.9c0,0.4,0,0.7,0,1.1c0,1.4,2.3,1.5,2.3,0c0-2.6,0-5.3,0-7.9c0-0.4,0-0.7,0-1.1
				C40.8,13.3,38.6,13.3,38.6,14.7L38.6,14.7z"/>
		</g>
	</g>
	<g>
		<g>
			<path d="M35.2,20.3c2.6,0,5.3,0,7.9,0c0.4,0,0.7,0,1.1,0c1.4,0,1.5-2.3,0-2.3c-2.6,0-5.3,0-7.9,0c-0.4,0-0.7,0-1.1,0
				C33.7,18.1,33.7,20.3,35.2,20.3L35.2,20.3z"/>
		</g>
	</g>
	<circle class="st0" cx="39.7" cy="19.2" r="14"/>
</g>
</svg>
